<svg width="43" height="8" viewBox="0 0 43 8" fill="none" xmlns="http://www.w3.org/2000/svg">
<path d="M42.2734 2.28039C42.4665 2.47952 42.5727 2.74723 42.5684 3.02462C42.5642 3.30201 42.45 3.56636 42.2508 3.75952L38.7787 7.12731C38.5788 7.31898 38.3114 7.42411 38.0345 7.41989C37.7576 7.41567 37.4935 7.30243 37.2996 7.10475L34.6601 4.3835C34.4668 4.19096 34.2063 4.08101 33.9336 4.07685C33.6608 4.07269 33.3971 4.17465 33.1981 4.3612L30.4898 6.98808C30.3914 7.08465 30.2749 7.1608 30.1469 7.21217C30.019 7.26354 29.8821 7.28911 29.7443 7.2874C29.6064 7.2857 29.4702 7.25676 29.3436 7.20224C29.217 7.14772 29.1024 7.06871 29.0064 6.96974L26.3795 4.2615C26.2841 4.16198 26.1699 4.0823 26.0436 4.02706C25.9173 3.97181 25.7813 3.94208 25.6434 3.93958C25.5056 3.93708 25.3686 3.96186 25.2403 4.01249C25.1121 4.06313 24.9951 4.13861 24.8961 4.23461L22.1879 6.86148C22.0897 6.95786 21.9734 7.03378 21.8456 7.08486C21.7178 7.13595 21.5812 7.16117 21.4436 7.15907C21.3061 7.15697 21.1703 7.1276 21.0441 7.07264C20.918 7.01769 20.804 6.93825 20.7088 6.83893L18.0819 4.13069C17.9859 4.03172 17.8713 3.95271 17.7447 3.89819C17.618 3.84367 17.4818 3.81473 17.344 3.81302C17.2061 3.81132 17.0693 3.83689 16.9413 3.88826C16.8134 3.93962 16.6968 4.01578 16.5984 4.11235L13.8902 6.73923C13.7912 6.83522 13.6743 6.91071 13.546 6.96134C13.4178 7.01197 13.2808 7.03675 13.1429 7.03425C13.0051 7.03175 12.8691 7.00202 12.7428 6.94677C12.6164 6.89153 12.5023 6.81185 12.4069 6.71233L9.77999 4.0041C9.58751 3.80787 9.32588 3.69476 9.05107 3.68897C8.77627 3.68318 8.51011 3.78517 8.30954 3.97312L5.58828 6.61263C5.38839 6.8043 5.12099 6.90943 4.84408 6.90521C4.56718 6.90098 4.30311 6.78775 4.10916 6.59007L0.741362 3.11798C0.548209 2.91884 0.442073 2.65113 0.446303 2.37374C0.450534 2.09635 0.564782 1.832 0.763918 1.63885C0.86233 1.54228 0.978861 1.46613 1.10681 1.41476C1.23476 1.36339 1.3716 1.33782 1.50947 1.33953C1.64733 1.34123 1.7835 1.37018 1.91014 1.42469C2.03678 1.47921 2.15139 1.55823 2.24738 1.6572L4.16703 3.63629C4.36062 3.8313 4.62353 3.94176 4.89831 3.94355C5.17309 3.94534 5.43741 3.8383 5.63353 3.64583L8.34176 1.01895C8.44073 0.92295 8.5577 0.847466 8.68594 0.796835C8.81418 0.746205 8.95117 0.721427 9.08902 0.723926C9.22687 0.726426 9.36287 0.756153 9.4892 0.811401C9.61552 0.866647 9.72967 0.94632 9.8251 1.04584L12.452 3.75408C12.6467 3.9525 12.912 4.06581 13.1899 4.06924C13.4679 4.07268 13.7359 3.96597 13.9354 3.77242L16.6437 1.14555C16.7423 1.04991 16.8588 0.974623 16.9864 0.923996C17.1141 0.87337 17.2506 0.848391 17.3879 0.850487C17.5253 0.852581 17.6609 0.881706 17.7869 0.936203C17.913 0.990699 18.0272 1.0695 18.1228 1.1681L20.7497 3.87634C20.944 4.07662 21.2098 4.19153 21.4888 4.19579C21.7678 4.20004 22.0371 4.09329 22.2374 3.89902L24.9456 1.27214C25.0442 1.1765 25.1607 1.10122 25.2884 1.05059C25.4161 0.999967 25.5525 0.97499 25.6898 0.977084C25.8272 0.979178 25.9628 1.00831 26.0889 1.0628C26.215 1.1173 26.3291 1.1961 26.4247 1.2947L29.0516 4.00293C29.2451 4.20247 29.5098 4.31731 29.7877 4.32235C30.0657 4.32739 30.3343 4.22222 30.5349 4.02983L33.2432 1.40295C33.3416 1.30638 33.4581 1.23023 33.5861 1.17886C33.714 1.12749 33.8509 1.10192 33.9887 1.10363C34.1266 1.10533 34.2628 1.13427 34.3894 1.18879C34.516 1.24331 34.6306 1.32233 34.7266 1.4213L37.3535 4.12953C37.5437 4.3279 37.8046 4.44294 38.0793 4.44954C38.354 4.45613 38.6202 4.35373 38.8196 4.16472L40.777 2.26612C40.8754 2.16733 40.9925 2.08921 41.1215 2.03633C41.2505 1.98346 41.3888 1.95691 41.5282 1.95824C41.6676 1.95956 41.8053 1.98875 41.9333 2.04407C42.0613 2.09939 42.1769 2.17974 42.2734 2.28039Z" fill="#31326C"/>
</svg>
